<svg width="748" height="313" viewBox="0 0 748 313" fill="none" xmlns="http://www.w3.org/2000/svg">
<path fill-rule="evenodd" clip-rule="evenodd" d="M0.250122 11.9048C0.250122 5.82965 5.17499 0.904785 11.2501 0.904785H234.087C240.162 0.904785 245.087 5.82965 245.087 11.9048V100.345C245.087 114.585 256.632 126.13 270.873 126.13V126.13C285.113 126.13 296.658 114.585 296.658 100.345V11.9048C296.658 5.82965 301.583 0.904785 307.658 0.904785H736.25C742.325 0.904785 747.25 5.82965 747.25 11.9048V301.452C747.25 307.528 742.325 312.452 736.25 312.452H307.658C301.583 312.452 296.658 307.528 296.658 301.452V207.977C296.658 193.736 285.113 182.192 270.873 182.192V182.192C256.632 182.192 245.087 193.736 245.087 207.977V301.452C245.087 307.528 240.162 312.452 234.087 312.452H11.2501C5.17499 312.452 0.250122 307.528 0.250122 301.452V11.9048Z" fill="#F0F4F8"/>
<path d="M103.572 291.763V279.395H105.067V290.435H111.026V291.763H103.572ZM112.232 291.763V282.997H113.644V291.763H112.232ZM112.938 281.287C112.672 281.287 112.445 281.193 112.257 281.005C112.069 280.817 111.975 280.59 111.975 280.324C111.975 280.059 112.069 279.832 112.257 279.644C112.445 279.455 112.672 279.361 112.938 279.361C113.204 279.361 113.431 279.455 113.619 279.644C113.807 279.832 113.901 280.059 113.901 280.324C113.901 280.59 113.807 280.817 113.619 281.005C113.431 281.193 113.204 281.287 112.938 281.287ZM123.001 295.232H121.59V290.435H121.573C121.363 290.772 121.117 291.052 120.834 291.273C120.552 291.494 120.242 291.658 119.905 291.763C119.573 291.873 119.216 291.929 118.834 291.929C118.076 291.929 117.409 291.738 116.833 291.356C116.263 290.969 115.821 290.435 115.505 289.754C115.19 289.068 115.032 288.276 115.032 287.38C115.032 286.478 115.19 285.687 115.505 285.006C115.821 284.32 116.263 283.786 116.833 283.404C117.409 283.022 118.076 282.831 118.834 282.831C119.216 282.831 119.581 282.886 119.93 282.997C120.284 283.102 120.605 283.263 120.892 283.479C121.18 283.694 121.418 283.965 121.606 284.292H121.623V282.997H123.001V295.232ZM119.05 290.659C119.592 290.659 120.062 290.523 120.461 290.252C120.859 289.981 121.166 289.599 121.382 289.106C121.598 288.614 121.706 288.038 121.706 287.38C121.706 286.716 121.598 286.138 121.382 285.645C121.166 285.153 120.859 284.771 120.461 284.5C120.062 284.228 119.592 284.093 119.05 284.093C118.546 284.093 118.098 284.217 117.705 284.466C117.318 284.715 117.013 285.083 116.792 285.57C116.571 286.057 116.46 286.66 116.46 287.38C116.46 288.094 116.571 288.694 116.792 289.181C117.013 289.668 117.318 290.036 117.705 290.285C118.098 290.534 118.546 290.659 119.05 290.659ZM128.058 291.929C127.472 291.929 126.932 291.801 126.44 291.547C125.953 291.287 125.563 290.899 125.269 290.385C124.982 289.865 124.838 289.217 124.838 288.442V282.997H126.249V288.343C126.249 289.101 126.431 289.674 126.797 290.061C127.162 290.443 127.671 290.634 128.324 290.634C128.75 290.634 129.137 290.548 129.486 290.376C129.835 290.205 130.111 289.934 130.316 289.563C130.526 289.192 130.632 288.714 130.632 288.127V282.997H132.043V291.763H130.665V289.638H131.063C130.775 290.424 130.374 291.002 129.86 291.373C129.351 291.743 128.75 291.929 128.058 291.929ZM133.88 291.763V282.997H135.291V291.763H133.88ZM134.585 281.287C134.319 281.287 134.093 281.193 133.904 281.005C133.716 280.817 133.622 280.59 133.622 280.324C133.622 280.059 133.716 279.832 133.904 279.644C134.093 279.455 134.319 279.361 134.585 279.361C134.851 279.361 135.078 279.455 135.266 279.644C135.454 279.832 135.548 280.059 135.548 280.324C135.548 280.59 135.454 280.817 135.266 281.005C135.078 281.193 134.851 281.287 134.585 281.287ZM140.481 291.929C139.723 291.929 139.056 291.738 138.48 291.356C137.911 290.969 137.468 290.435 137.152 289.754C136.837 289.068 136.679 288.276 136.679 287.38C136.679 286.478 136.837 285.687 137.152 285.006C137.468 284.32 137.911 283.786 138.48 283.404C139.056 283.022 139.723 282.831 140.481 282.831C140.863 282.831 141.225 282.886 141.568 282.997C141.917 283.102 142.232 283.263 142.515 283.479C142.797 283.694 143.032 283.965 143.22 284.292H143.237V279.395H144.648V291.763H143.27V290.435H143.253C143.043 290.772 142.794 291.052 142.506 291.273C142.219 291.494 141.903 291.658 141.56 291.763C141.223 291.873 140.863 291.929 140.481 291.929ZM140.697 290.659C141.239 290.659 141.709 290.523 142.108 290.252C142.506 289.981 142.813 289.599 143.029 289.106C143.245 288.614 143.353 288.038 143.353 287.38C143.353 286.716 143.245 286.138 143.029 285.645C142.813 285.153 142.506 284.771 142.108 284.5C141.709 284.228 141.239 284.093 140.697 284.093C140.193 284.093 139.745 284.217 139.352 284.466C138.965 284.715 138.66 285.083 138.439 285.57C138.218 286.057 138.107 286.66 138.107 287.38C138.107 288.094 138.218 288.694 138.439 289.181C138.66 289.668 138.965 290.036 139.352 290.285C139.745 290.534 140.193 290.659 140.697 290.659Z" fill="#7D95A2"/>
<path d="M451.966 291.763V279.395H453.46V290.435H459.42V291.763H451.966ZM464.245 291.962C463.437 291.962 462.726 291.768 462.112 291.381C461.503 290.988 461.027 290.448 460.684 289.762C460.346 289.076 460.177 288.287 460.177 287.396C460.177 286.5 460.346 285.706 460.684 285.014C461.027 284.322 461.503 283.78 462.112 283.387C462.726 282.994 463.437 282.798 464.245 282.798C465.058 282.798 465.769 282.994 466.378 283.387C466.987 283.78 467.46 284.322 467.798 285.014C468.141 285.706 468.312 286.5 468.312 287.396C468.312 288.287 468.141 289.076 467.798 289.762C467.46 290.448 466.987 290.988 466.378 291.381C465.769 291.768 465.058 291.962 464.245 291.962ZM464.245 290.684C464.798 290.684 465.271 290.548 465.664 290.277C466.057 290.006 466.359 289.624 466.569 289.131C466.779 288.633 466.885 288.055 466.885 287.396C466.885 286.727 466.779 286.146 466.569 285.653C466.359 285.155 466.057 284.768 465.664 284.491C465.271 284.215 464.798 284.076 464.245 284.076C463.697 284.076 463.224 284.215 462.825 284.491C462.433 284.762 462.131 285.147 461.921 285.645C461.71 286.143 461.605 286.727 461.605 287.396C461.605 288.061 461.71 288.639 461.921 289.131C462.131 289.624 462.433 290.006 462.825 290.277C463.218 290.548 463.691 290.684 464.245 290.684ZM473.32 291.962C472.512 291.962 471.801 291.768 471.187 291.381C470.578 290.988 470.102 290.448 469.759 289.762C469.421 289.076 469.253 288.287 469.253 287.396C469.253 286.5 469.421 285.706 469.759 285.014C470.102 284.322 470.578 283.78 471.187 283.387C471.801 282.994 472.512 282.798 473.32 282.798C473.818 282.798 474.277 282.875 474.698 283.03C475.124 283.18 475.498 283.393 475.818 283.669C476.145 283.941 476.411 284.262 476.615 284.632C476.82 285.003 476.953 285.41 477.014 285.853H475.586C475.536 285.592 475.45 285.354 475.329 285.139C475.207 284.923 475.049 284.737 474.856 284.583C474.667 284.422 474.446 284.298 474.192 284.209C473.937 284.12 473.646 284.076 473.32 284.076C472.772 284.076 472.299 284.215 471.901 284.491C471.508 284.762 471.206 285.147 470.996 285.645C470.785 286.143 470.68 286.727 470.68 287.396C470.68 288.061 470.785 288.639 470.996 289.131C471.206 289.624 471.508 290.006 471.901 290.277C472.293 290.548 472.767 290.684 473.32 290.684C473.646 290.684 473.934 290.642 474.183 290.559C474.432 290.476 474.645 290.357 474.822 290.202C475.005 290.042 475.157 289.854 475.279 289.638C475.401 289.416 475.495 289.173 475.561 288.907H477.014C476.953 289.339 476.82 289.74 476.615 290.111C476.411 290.482 476.145 290.805 475.818 291.082C475.492 291.359 475.116 291.575 474.69 291.729C474.269 291.884 473.812 291.962 473.32 291.962ZM479.664 288.608V286.94H479.772L483.848 282.997H485.674L481.407 287.147H481.274L479.664 288.608ZM478.344 291.763V279.395H479.755V291.763H478.344ZM484.163 291.763L480.594 287.463L481.59 286.483L485.956 291.763H484.163ZM489.959 291.962C489.102 291.962 488.368 291.765 487.76 291.373C487.156 290.98 486.694 290.44 486.373 289.754C486.052 289.062 485.892 288.276 485.892 287.396C485.892 286.506 486.061 285.714 486.398 285.022C486.736 284.331 487.204 283.788 487.801 283.396C488.399 282.997 489.085 282.798 489.86 282.798C490.468 282.798 491.016 282.909 491.503 283.13C491.996 283.351 492.416 283.667 492.765 284.076C493.114 284.486 493.379 284.973 493.562 285.537C493.75 286.096 493.844 286.716 493.844 287.396V287.787H486.639V286.575H493.056L492.45 286.998C492.45 286.4 492.342 285.883 492.126 285.446C491.916 285.003 491.617 284.663 491.229 284.425C490.842 284.181 490.385 284.06 489.86 284.06C489.34 284.06 488.886 284.181 488.498 284.425C488.117 284.663 487.818 285.003 487.602 285.446C487.392 285.883 487.287 286.4 487.287 286.998V287.596C487.287 288.199 487.389 288.733 487.594 289.198C487.804 289.663 488.108 290.028 488.507 290.293C488.905 290.554 489.389 290.684 489.959 290.684C490.374 290.684 490.74 290.62 491.055 290.493C491.371 290.36 491.631 290.177 491.835 289.945C492.046 289.712 492.195 289.444 492.284 289.14H493.695C493.584 289.699 493.354 290.191 493.006 290.617C492.657 291.038 492.22 291.367 491.694 291.605C491.174 291.843 490.596 291.962 489.959 291.962ZM498.553 291.929C497.795 291.929 497.128 291.738 496.553 291.356C495.983 290.969 495.54 290.435 495.224 289.754C494.909 289.068 494.751 288.276 494.751 287.38C494.751 286.478 494.909 285.687 495.224 285.006C495.54 284.32 495.983 283.786 496.553 283.404C497.128 283.022 497.795 282.831 498.553 282.831C498.935 282.831 499.297 282.886 499.64 282.997C499.989 283.102 500.304 283.263 500.587 283.479C500.869 283.694 501.104 283.965 501.292 284.292H501.309V279.395H502.72V291.763H501.342V290.435H501.325C501.115 290.772 500.866 291.052 500.578 291.273C500.291 291.494 499.975 291.658 499.632 291.763C499.295 291.873 498.935 291.929 498.553 291.929ZM498.769 290.659C499.311 290.659 499.782 290.523 500.18 290.252C500.578 289.981 500.886 289.599 501.101 289.106C501.317 288.614 501.425 288.038 501.425 287.38C501.425 286.716 501.317 286.138 501.101 285.645C500.886 285.153 500.578 284.771 500.18 284.5C499.782 284.228 499.311 284.093 498.769 284.093C498.265 284.093 497.817 284.217 497.424 284.466C497.037 284.715 496.732 285.083 496.511 285.57C496.29 286.057 496.179 286.66 496.179 287.38C496.179 288.094 496.29 288.694 496.511 289.181C496.732 289.668 497.037 290.036 497.424 290.285C497.817 290.534 498.265 290.659 498.769 290.659ZM511.772 291.929C511.186 291.929 510.646 291.801 510.154 291.547C509.667 291.287 509.277 290.899 508.983 290.385C508.696 289.865 508.552 289.217 508.552 288.442V282.997H509.963V288.343C509.963 289.101 510.146 289.674 510.511 290.061C510.876 290.443 511.385 290.634 512.038 290.634C512.464 290.634 512.852 290.548 513.2 290.376C513.549 290.205 513.826 289.934 514.03 289.563C514.241 289.192 514.346 288.714 514.346 288.127V282.997H515.757V291.763H514.379V289.638H514.777C514.49 290.424 514.088 291.002 513.574 291.373C513.065 291.743 512.464 291.929 511.772 291.929ZM519.005 286.633V291.763H517.594V282.997H518.972V285.122H518.573C518.861 284.331 519.259 283.752 519.768 283.387C520.283 283.016 520.886 282.831 521.578 282.831C522.17 282.831 522.71 282.961 523.197 283.221C523.684 283.476 524.071 283.86 524.359 284.375C524.652 284.89 524.799 285.537 524.799 286.317V291.763H523.388V286.417C523.388 285.659 523.205 285.089 522.84 284.707C522.48 284.32 521.971 284.126 521.312 284.126C520.886 284.126 520.499 284.212 520.15 284.383C519.802 284.555 519.522 284.826 519.312 285.197C519.107 285.562 519.005 286.041 519.005 286.633ZM530.462 282.997V284.209H525.714V282.997H530.462ZM527.275 280.606H528.686V289.638C528.686 289.975 528.755 290.213 528.893 290.352C529.037 290.484 529.289 290.551 529.649 290.551C529.776 290.551 529.912 290.551 530.055 290.551C530.205 290.551 530.34 290.551 530.462 290.551V291.763C530.318 291.763 530.161 291.763 529.989 291.763C529.818 291.763 529.66 291.763 529.516 291.763C528.763 291.763 528.202 291.599 527.831 291.273C527.46 290.941 527.275 290.446 527.275 289.787V280.606ZM531.676 291.763V282.997H533.088V291.763H531.676ZM532.382 281.287C532.116 281.287 531.889 281.193 531.701 281.005C531.513 280.817 531.419 280.59 531.419 280.324C531.419 280.059 531.513 279.832 531.701 279.644C531.889 279.455 532.116 279.361 532.382 279.361C532.648 279.361 532.875 279.455 533.063 279.644C533.251 279.832 533.345 280.059 533.345 280.324C533.345 280.59 533.251 280.817 533.063 281.005C532.875 281.193 532.648 281.287 532.382 281.287ZM536.336 279.395V291.763H534.924V279.395H536.336ZM545.388 291.929C544.801 291.929 544.262 291.801 543.769 291.547C543.282 291.287 542.892 290.899 542.599 290.385C542.311 289.865 542.167 289.217 542.167 288.442V282.997H543.578V288.343C543.578 289.101 543.761 289.674 544.126 290.061C544.492 290.443 545.001 290.634 545.654 290.634C546.08 290.634 546.467 290.548 546.816 290.376C547.164 290.205 547.441 289.934 547.646 289.563C547.856 289.192 547.961 288.714 547.961 288.127V282.997H549.372V291.763H547.994V289.638H548.393C548.105 290.424 547.704 291.002 547.189 291.373C546.68 291.743 546.08 291.929 545.388 291.929ZM552.62 286.633V291.763H551.209V282.997H552.587V285.122H552.189C552.476 284.331 552.875 283.752 553.384 283.387C553.899 283.016 554.502 282.831 555.194 282.831C555.786 282.831 556.325 282.961 556.812 283.221C557.299 283.476 557.687 283.86 557.974 284.375C558.268 284.89 558.414 285.537 558.414 286.317V291.763H557.003V286.417C557.003 285.659 556.821 285.089 556.455 284.707C556.096 284.32 555.586 284.126 554.928 284.126C554.502 284.126 554.114 284.212 553.766 284.383C553.417 284.555 553.138 284.826 552.927 285.197C552.723 285.562 552.62 286.041 552.62 286.633ZM563.306 291.962C562.68 291.962 562.113 291.86 561.604 291.655C561.095 291.45 560.683 291.14 560.367 290.725C560.052 290.305 559.875 289.776 559.836 289.14H561.231C561.28 289.66 561.48 290.058 561.828 290.335C562.177 290.612 562.658 290.75 563.273 290.75C563.881 290.75 564.36 290.623 564.709 290.368C565.063 290.114 565.24 289.793 565.24 289.405C565.24 289.073 565.118 288.808 564.875 288.608C564.631 288.409 564.313 288.265 563.92 288.177L562.509 287.845C561.695 287.651 561.078 287.347 560.658 286.932C560.243 286.517 560.035 285.991 560.035 285.354C560.035 284.856 560.168 284.417 560.434 284.035C560.705 283.647 561.078 283.346 561.554 283.13C562.036 282.909 562.589 282.798 563.214 282.798C563.823 282.798 564.368 282.914 564.85 283.146C565.337 283.373 565.721 283.697 566.003 284.118C566.291 284.538 566.443 285.039 566.46 285.62H565.082C565.077 285.155 564.905 284.771 564.567 284.466C564.23 284.162 563.779 284.01 563.214 284.01C562.678 284.01 562.249 284.14 561.928 284.4C561.607 284.66 561.446 284.978 561.446 285.354C561.446 285.687 561.568 285.955 561.812 286.16C562.055 286.359 562.387 286.508 562.808 286.608L564.219 286.94C565.06 287.139 565.677 287.438 566.07 287.836C566.463 288.229 566.659 288.741 566.659 289.372C566.659 289.914 566.513 290.379 566.219 290.767C565.926 291.154 565.525 291.45 565.016 291.655C564.512 291.86 563.942 291.962 563.306 291.962ZM571.891 282.997V284.209H567.143V282.997H571.891ZM568.704 280.606H570.115V289.638C570.115 289.975 570.184 290.213 570.322 290.352C570.466 290.484 570.718 290.551 571.078 290.551C571.205 290.551 571.34 290.551 571.484 290.551C571.634 290.551 571.769 290.551 571.891 290.551V291.763C571.747 291.763 571.589 291.763 571.418 291.763C571.246 291.763 571.089 291.763 570.945 291.763C570.192 291.763 569.63 291.599 569.26 291.273C568.889 290.941 568.704 290.446 568.704 289.787V280.606ZM575.944 291.896C575.363 291.896 574.843 291.796 574.384 291.597C573.924 291.397 573.559 291.101 573.288 290.708C573.022 290.31 572.889 289.82 572.889 289.239C572.889 288.736 572.986 288.326 573.18 288.011C573.379 287.695 573.642 287.449 573.969 287.272C574.301 287.089 574.674 286.951 575.089 286.857C575.51 286.763 575.939 286.688 576.376 286.633C576.935 286.555 577.375 286.497 577.696 286.458C578.017 286.42 578.243 286.356 578.376 286.268C578.515 286.179 578.584 286.024 578.584 285.803V285.72C578.584 285.399 578.506 285.117 578.351 284.873C578.202 284.624 577.981 284.43 577.687 284.292C577.4 284.148 577.051 284.076 576.641 284.076C576.237 284.076 575.878 284.145 575.562 284.284C575.252 284.417 575.003 284.599 574.815 284.832C574.633 285.064 574.53 285.327 574.508 285.62H573.072C573.1 285.083 573.266 284.607 573.57 284.192C573.875 283.772 574.29 283.44 574.815 283.196C575.341 282.953 575.95 282.831 576.641 282.831C577.151 282.831 577.61 282.9 578.019 283.039C578.434 283.177 578.786 283.373 579.074 283.628C579.367 283.882 579.591 284.187 579.746 284.541C579.901 284.895 579.978 285.288 579.978 285.72V291.763H578.584V290.518H578.551C578.445 290.728 578.291 290.941 578.086 291.157C577.881 291.367 577.604 291.544 577.256 291.688C576.913 291.826 576.475 291.896 575.944 291.896ZM576.143 290.634C576.719 290.634 577.187 290.531 577.546 290.327C577.906 290.116 578.169 289.845 578.335 289.513C578.501 289.181 578.584 288.824 578.584 288.442V287.347C578.528 287.396 578.426 287.444 578.277 287.488C578.133 287.532 577.953 287.576 577.737 287.621C577.527 287.659 577.297 287.698 577.048 287.737C576.805 287.776 576.558 287.812 576.309 287.845C575.972 287.889 575.651 287.966 575.347 288.077C575.048 288.182 574.804 288.334 574.616 288.534C574.428 288.727 574.334 288.99 574.334 289.322C574.334 289.593 574.406 289.829 574.55 290.028C574.699 290.222 574.909 290.371 575.181 290.476C575.452 290.581 575.773 290.634 576.143 290.634ZM583.135 288.608V286.94H583.243L587.319 282.997H589.145L584.878 287.147H584.745L583.135 288.608ZM581.815 291.763V279.395H583.226V291.763H581.815ZM587.634 291.763L584.065 287.463L585.061 286.483L589.427 291.763H587.634ZM593.43 291.962C592.573 291.962 591.839 291.765 591.231 291.373C590.627 290.98 590.165 290.44 589.844 289.754C589.523 289.062 589.363 288.276 589.363 287.396C589.363 286.506 589.532 285.714 589.869 285.022C590.207 284.331 590.674 283.788 591.272 283.396C591.87 282.997 592.556 282.798 593.331 282.798C593.939 282.798 594.487 282.909 594.974 283.13C595.467 283.351 595.887 283.667 596.236 284.076C596.585 284.486 596.85 284.973 597.033 285.537C597.221 286.096 597.315 286.716 597.315 287.396V287.787H590.11V286.575H596.526L595.921 286.998C595.921 286.4 595.813 285.883 595.597 285.446C595.386 285.003 595.088 284.663 594.7 284.425C594.313 284.181 593.856 284.06 593.331 284.06C592.81 284.06 592.357 284.181 591.969 284.425C591.587 284.663 591.289 285.003 591.073 285.446C590.863 285.883 590.757 286.4 590.757 286.998V287.596C590.757 288.199 590.86 288.733 591.065 289.198C591.275 289.663 591.579 290.028 591.978 290.293C592.376 290.554 592.86 290.684 593.43 290.684C593.845 290.684 594.211 290.62 594.526 290.493C594.841 290.36 595.101 290.177 595.306 289.945C595.517 289.712 595.666 289.444 595.754 289.14H597.166C597.055 289.699 596.825 290.191 596.477 290.617C596.128 291.038 595.691 291.367 595.165 291.605C594.645 291.843 594.067 291.962 593.43 291.962ZM602.024 291.929C601.266 291.929 600.599 291.738 600.023 291.356C599.453 290.969 599.011 290.435 598.695 289.754C598.38 289.068 598.222 288.276 598.222 287.38C598.222 286.478 598.38 285.687 598.695 285.006C599.011 284.32 599.453 283.786 600.023 283.404C600.599 283.022 601.266 282.831 602.024 282.831C602.406 282.831 602.768 282.886 603.111 282.997C603.46 283.102 603.775 283.263 604.058 283.479C604.34 283.694 604.575 283.965 604.763 284.292H604.78V279.395H606.191V291.763H604.813V290.435H604.796C604.586 290.772 604.337 291.052 604.049 291.273C603.762 291.494 603.446 291.658 603.103 291.763C602.765 291.873 602.406 291.929 602.024 291.929ZM602.24 290.659C602.782 290.659 603.252 290.523 603.651 290.252C604.049 289.981 604.356 289.599 604.572 289.106C604.788 288.614 604.896 288.038 604.896 287.38C604.896 286.716 604.788 286.138 604.572 285.645C604.356 285.153 604.049 284.771 603.651 284.5C603.252 284.228 602.782 284.093 602.24 284.093C601.736 284.093 601.288 284.217 600.895 284.466C600.508 284.715 600.203 285.083 599.982 285.57C599.761 286.057 599.65 286.66 599.65 287.38C599.65 288.094 599.761 288.694 599.982 289.181C600.203 289.668 600.508 290.036 600.895 290.285C601.288 290.534 601.736 290.659 602.24 290.659Z" fill="#7D95A2"/>
<path d="M377.326 37.8716C376.335 37.8716 375.48 37.7028 374.761 37.3652C374.047 37.0277 373.496 36.5435 373.109 35.9126C372.721 35.2817 372.528 34.5319 372.528 33.6631H374.404C374.409 34.1999 374.525 34.6619 374.752 35.0493C374.985 35.4312 375.32 35.7244 375.757 35.9292C376.199 36.134 376.725 36.2363 377.334 36.2363C377.887 36.2363 378.369 36.1561 378.778 35.9956C379.193 35.8351 379.514 35.6082 379.741 35.3149C379.974 35.0216 380.09 34.6758 380.09 34.2773C380.09 33.9674 380.01 33.6963 379.849 33.4639C379.694 33.2259 379.442 33.0212 379.094 32.8496C378.751 32.6725 378.294 32.5176 377.724 32.3848L376.371 32.0693C375.12 31.776 374.207 31.361 373.632 30.8242C373.062 30.2819 372.777 29.5819 372.777 28.7241C372.777 27.9937 372.959 27.36 373.325 26.8232C373.69 26.2809 374.205 25.8604 374.869 25.5615C375.538 25.2572 376.316 25.105 377.201 25.105C378.092 25.105 378.864 25.2627 379.517 25.5781C380.176 25.8936 380.687 26.3446 381.053 26.9312C381.418 27.5122 381.612 28.2039 381.634 29.0063H379.816C379.772 28.3035 379.514 27.7529 379.044 27.3545C378.574 26.9505 377.951 26.7485 377.176 26.7485C376.684 26.7485 376.247 26.8288 375.865 26.9893C375.488 27.1442 375.192 27.3656 374.976 27.6533C374.761 27.9355 374.653 28.262 374.653 28.6328C374.653 28.9261 374.73 29.1834 374.885 29.4048C375.046 29.6206 375.297 29.8115 375.641 29.9775C375.989 30.1436 376.443 30.2957 377.002 30.4341L378.33 30.7495C378.95 30.8934 379.487 31.0705 379.94 31.2808C380.4 31.491 380.779 31.7373 381.078 32.0195C381.376 32.2962 381.598 32.6144 381.742 32.9741C381.891 33.3338 381.966 33.735 381.966 34.1777C381.966 34.9193 381.775 35.5695 381.393 36.1284C381.011 36.6818 380.472 37.1107 379.774 37.415C379.083 37.7194 378.266 37.8716 377.326 37.8716ZM387.596 28.9067V30.3843H382.474V28.9067H387.596ZM384.018 26.5161H385.811V35.3315C385.811 35.6525 385.878 35.8766 386.011 36.0039C386.143 36.1312 386.384 36.1948 386.733 36.1948C386.866 36.1948 387.012 36.1948 387.173 36.1948C387.339 36.1948 387.48 36.1948 387.596 36.1948V37.6724C387.452 37.6724 387.275 37.6724 387.065 37.6724C386.86 37.6724 386.664 37.6724 386.475 37.6724C385.64 37.6724 385.02 37.5008 384.616 37.1577C384.218 36.8091 384.018 36.2778 384.018 35.564V26.5161ZM391.566 37.8135C390.985 37.8135 390.465 37.7139 390.006 37.5146C389.552 37.3154 389.192 37.0194 388.926 36.6265C388.661 36.2336 388.528 35.7466 388.528 35.1655C388.528 34.6675 388.622 34.258 388.81 33.937C389.004 33.616 389.264 33.3615 389.591 33.1733C389.917 32.9852 390.288 32.8441 390.703 32.75C391.118 32.6504 391.547 32.5757 391.989 32.5259C392.543 32.4539 392.977 32.3986 393.293 32.3599C393.614 32.3156 393.841 32.2492 393.973 32.1606C394.112 32.0666 394.181 31.9144 394.181 31.7041V31.6294C394.181 31.3472 394.112 31.0981 393.973 30.8823C393.835 30.6665 393.636 30.4977 393.376 30.376C393.116 30.2542 392.8 30.1934 392.429 30.1934C392.064 30.1934 391.74 30.2542 391.458 30.376C391.176 30.4922 390.952 30.6554 390.786 30.8657C390.62 31.076 390.526 31.3167 390.504 31.5879H388.744C388.777 31.0234 388.949 30.5282 389.258 30.1021C389.568 29.6759 389.994 29.3411 390.537 29.0977C391.085 28.8542 391.724 28.7324 392.454 28.7324C392.997 28.7324 393.484 28.8016 393.915 28.9399C394.352 29.0783 394.72 29.2775 395.019 29.5376C395.324 29.7922 395.556 30.0993 395.716 30.459C395.877 30.8187 395.957 31.2199 395.957 31.6626V37.6724H394.189V36.4272H394.156C394.034 36.6652 393.865 36.8921 393.65 37.1079C393.439 37.3182 393.165 37.4897 392.828 37.6226C392.49 37.7498 392.07 37.8135 391.566 37.8135ZM391.948 36.3857C392.452 36.3857 392.869 36.2944 393.201 36.1118C393.539 35.9292 393.788 35.6885 393.948 35.3896C394.109 35.0853 394.189 34.7533 394.189 34.3936V33.3809C394.128 33.4251 394.029 33.4694 393.89 33.5137C393.758 33.5524 393.594 33.5911 393.401 33.6299C393.212 33.6686 393.005 33.7074 392.778 33.7461C392.557 33.7793 392.333 33.8097 392.106 33.8374C391.79 33.8817 391.494 33.9564 391.217 34.0615C390.946 34.1611 390.725 34.3022 390.553 34.4849C390.387 34.6619 390.304 34.8999 390.304 35.1987C390.304 35.4422 390.371 35.6553 390.504 35.8379C390.636 36.015 390.825 36.1506 391.068 36.2446C391.317 36.3387 391.61 36.3857 391.948 36.3857ZM399.321 34.7505V32.6338H399.479L403.19 28.9067H405.398L401.239 33.1567H400.948L399.321 34.7505ZM397.67 37.6724V25.3042H399.462V37.6724H397.67ZM403.455 37.6724L400.185 33.5552L401.405 32.3018L405.647 37.6724H403.455ZM409.691 37.8716C408.823 37.8716 408.075 37.6751 407.45 37.2822C406.825 36.8893 406.343 36.3498 406.006 35.6636C405.674 34.9718 405.508 34.186 405.508 33.3062C405.508 32.4097 405.682 31.6183 406.031 30.9321C406.379 30.2404 406.861 29.6981 407.475 29.3052C408.089 28.9067 408.798 28.7075 409.6 28.7075C410.22 28.7075 410.782 28.8182 411.285 29.0396C411.789 29.2609 412.22 29.5763 412.58 29.9858C412.945 30.3898 413.222 30.8713 413.41 31.4302C413.604 31.9891 413.701 32.6061 413.701 33.2812V33.771H406.296V32.4346H412.771L411.982 32.833C411.982 32.2962 411.886 31.8314 411.692 31.4385C411.498 31.04 411.224 30.7329 410.87 30.5171C410.516 30.3013 410.098 30.1934 409.617 30.1934C409.141 30.1934 408.726 30.3013 408.372 30.5171C408.023 30.7329 407.752 31.04 407.558 31.4385C407.364 31.8314 407.268 32.2962 407.268 32.833V33.605C407.268 34.1528 407.362 34.637 407.55 35.0576C407.743 35.4727 408.023 35.7992 408.388 36.0371C408.753 36.2695 409.196 36.3857 409.716 36.3857C410.098 36.3857 410.433 36.3276 410.721 36.2114C411.014 36.0952 411.255 35.9347 411.443 35.73C411.637 35.5197 411.775 35.2762 411.858 34.9995H413.576C413.465 35.5695 413.227 36.0703 412.862 36.502C412.503 36.9281 412.049 37.2629 411.501 37.5063C410.959 37.7498 410.355 37.8716 409.691 37.8716ZM418.326 37.8467C417.568 37.8467 416.904 37.6558 416.334 37.2739C415.764 36.8866 415.322 36.3525 415.006 35.6719C414.691 34.9857 414.533 34.1916 414.533 33.2896C414.533 32.3875 414.691 31.5962 415.006 30.9155C415.322 30.2293 415.764 29.6953 416.334 29.3135C416.91 28.9261 417.574 28.7324 418.326 28.7324C418.708 28.7324 419.065 28.785 419.397 28.8901C419.735 28.9953 420.039 29.1558 420.31 29.3716C420.587 29.5819 420.819 29.8475 421.008 30.1685H421.016V25.3042H422.809V37.6724H421.049V36.3359H421.041C420.842 36.6735 420.604 36.9557 420.327 37.1826C420.05 37.404 419.743 37.57 419.406 37.6807C419.074 37.7913 418.714 37.8467 418.326 37.8467ZM418.7 36.311C419.193 36.311 419.621 36.1865 419.987 35.9375C420.352 35.6829 420.634 35.3288 420.833 34.875C421.033 34.4212 421.132 33.8927 421.132 33.2896C421.132 32.6753 421.033 32.1413 420.833 31.6875C420.634 31.2337 420.352 30.8823 419.987 30.6333C419.621 30.3843 419.193 30.2598 418.7 30.2598C418.235 30.2598 417.826 30.376 417.472 30.6084C417.117 30.8408 416.841 31.1812 416.641 31.6294C416.442 32.0776 416.343 32.631 416.343 33.2896C416.343 33.937 416.442 34.4876 416.641 34.9414C416.841 35.3896 417.117 35.73 417.472 35.9624C417.826 36.1948 418.235 36.311 418.7 36.311ZM428.425 37.6724V25.3042H436.51V26.9478H430.317V30.625H436.045V32.2437H430.317V37.6724H428.425ZM440.223 37.8467C439.619 37.8467 439.077 37.7166 438.596 37.4565C438.12 37.1909 437.743 36.8008 437.467 36.2861C437.19 35.766 437.052 35.1268 437.052 34.3687V28.9067H438.845V34.1362C438.845 34.8335 439.011 35.3592 439.343 35.7134C439.68 36.0675 440.148 36.2446 440.746 36.2446C441.138 36.2446 441.493 36.1672 441.808 36.0122C442.124 35.8517 442.373 35.5999 442.555 35.2568C442.743 34.9137 442.837 34.4738 442.837 33.937V28.9067H444.63V37.6724H442.871V35.4893H443.277C442.995 36.2695 442.597 36.8589 442.082 37.2573C441.573 37.6502 440.953 37.8467 440.223 37.8467ZM448.136 32.6421V37.6724H446.343V28.9067H448.102V31.0898H447.696C447.978 30.304 448.376 29.7147 448.891 29.3218C449.406 28.9289 450.028 28.7324 450.759 28.7324C451.362 28.7324 451.901 28.8652 452.377 29.1309C452.853 29.391 453.23 29.7783 453.506 30.293C453.783 30.8076 453.921 31.4468 453.921 32.2104V37.6724H452.128V32.4429C452.128 31.7456 451.962 31.2199 451.63 30.8657C451.298 30.5116 450.831 30.3345 450.227 30.3345C449.834 30.3345 449.48 30.4147 449.165 30.5752C448.849 30.7301 448.598 30.9792 448.41 31.3223C448.227 31.6598 448.136 32.0998 448.136 32.6421ZM459.004 37.8467C458.246 37.8467 457.581 37.6558 457.011 37.2739C456.441 36.8866 455.999 36.3525 455.683 35.6719C455.368 34.9857 455.21 34.1916 455.21 33.2896C455.21 32.3875 455.368 31.5962 455.683 30.9155C455.999 30.2293 456.441 29.6953 457.011 29.3135C457.587 28.9261 458.251 28.7324 459.004 28.7324C459.385 28.7324 459.742 28.785 460.074 28.8901C460.412 28.9953 460.716 29.1558 460.988 29.3716C461.264 29.5819 461.497 29.8475 461.685 30.1685H461.693V25.3042H463.486V37.6724H461.726V36.3359H461.718C461.519 36.6735 461.281 36.9557 461.004 37.1826C460.727 37.404 460.42 37.57 460.083 37.6807C459.751 37.7913 459.391 37.8467 459.004 37.8467ZM459.377 36.311C459.87 36.311 460.299 36.1865 460.664 35.9375C461.029 35.6829 461.311 35.3288 461.51 34.875C461.71 34.4212 461.809 33.8927 461.809 33.2896C461.809 32.6753 461.71 32.1413 461.51 31.6875C461.311 31.2337 461.029 30.8823 460.664 30.6333C460.299 30.3843 459.87 30.2598 459.377 30.2598C458.912 30.2598 458.503 30.376 458.149 30.6084C457.794 30.8408 457.518 31.1812 457.319 31.6294C457.119 32.0776 457.02 32.631 457.02 33.2896C457.02 33.937 457.119 34.4876 457.319 34.9414C457.518 35.3896 457.794 35.73 458.149 35.9624C458.503 36.1948 458.912 36.311 459.377 36.311ZM468.461 37.8799C467.785 37.8799 467.177 37.772 466.634 37.5562C466.098 37.3403 465.663 37.0194 465.331 36.5933C465.005 36.1616 464.819 35.6304 464.775 34.9995H466.543C466.593 35.4699 466.778 35.8324 467.099 36.0869C467.42 36.3415 467.863 36.4688 468.427 36.4688C468.975 36.4688 469.407 36.3581 469.722 36.1367C470.043 35.9098 470.204 35.6221 470.204 35.2734C470.204 34.9801 470.09 34.745 469.863 34.5679C469.637 34.3908 469.332 34.2607 468.95 34.1777L467.498 33.8623C466.668 33.6742 466.039 33.3698 465.613 32.9492C465.187 32.5286 464.974 31.9946 464.974 31.3472C464.974 30.827 465.113 30.3704 465.389 29.9775C465.671 29.5791 466.067 29.2692 466.576 29.0479C467.085 28.8265 467.678 28.7158 468.353 28.7158C469.017 28.7158 469.606 28.832 470.121 29.0645C470.635 29.2969 471.039 29.6289 471.333 30.0605C471.631 30.4867 471.789 30.9958 471.806 31.5879H470.104C470.099 31.1673 469.938 30.8187 469.623 30.542C469.307 30.2598 468.892 30.1187 468.378 30.1187C467.885 30.1187 467.492 30.2349 467.199 30.4673C466.911 30.6942 466.767 30.9736 466.767 31.3057C466.767 31.599 466.878 31.8369 467.099 32.0195C467.321 32.2021 467.625 32.3377 468.012 32.4263L469.523 32.75C470.381 32.9437 471.009 33.237 471.407 33.6299C471.811 34.0228 472.013 34.5374 472.013 35.1738C472.013 35.7327 471.858 36.2142 471.548 36.6182C471.244 37.0221 470.824 37.3348 470.287 37.5562C469.755 37.772 469.147 37.8799 468.461 37.8799ZM393.511 47.9478V46.3042H403.248V47.9478H399.33V58.6724H397.445V47.9478H393.511ZM406.139 58.8716C405.303 58.8716 404.567 58.6779 403.931 58.2905C403.3 57.9032 402.807 57.3664 402.453 56.6802C402.104 55.994 401.93 55.2026 401.93 54.3062C401.93 53.3986 402.104 52.6017 402.453 51.9155C402.807 51.2238 403.3 50.6842 403.931 50.2969C404.567 49.904 405.303 49.7075 406.139 49.7075C406.98 49.7075 407.716 49.904 408.347 50.2969C408.977 50.6842 409.467 51.2238 409.816 51.9155C410.17 52.6017 410.347 53.3986 410.347 54.3062C410.347 55.2026 410.17 55.994 409.816 56.6802C409.467 57.3664 408.977 57.9032 408.347 58.2905C407.716 58.6779 406.98 58.8716 406.139 58.8716ZM406.139 57.3276C406.637 57.3276 407.063 57.2059 407.417 56.9624C407.777 56.7134 408.053 56.362 408.247 55.9082C408.441 55.4544 408.538 54.9204 408.538 54.3062C408.538 53.6808 408.441 53.1413 408.247 52.6875C408.053 52.2282 407.777 51.874 407.417 51.625C407.063 51.376 406.637 51.2515 406.139 51.2515C405.646 51.2515 405.22 51.376 404.86 51.625C404.501 51.874 404.224 52.2282 404.03 52.6875C403.837 53.1413 403.74 53.6808 403.74 54.3062C403.74 54.9204 403.837 55.4544 404.03 55.9082C404.224 56.362 404.501 56.7134 404.86 56.9624C405.22 57.2059 405.646 57.3276 406.139 57.3276ZM413.421 53.6421V58.6724H411.628V49.9067H413.388V52.0898H412.981C413.263 51.304 413.661 50.7147 414.176 50.3218C414.691 49.9289 415.313 49.7324 416.044 49.7324C416.647 49.7324 417.187 49.8652 417.662 50.1309C418.138 50.391 418.515 50.7783 418.791 51.293C419.068 51.8076 419.206 52.4468 419.206 53.2104V58.6724H417.413V53.4429C417.413 52.7456 417.247 52.2199 416.915 51.8657C416.583 51.5116 416.116 51.3345 415.513 51.3345C415.12 51.3345 414.765 51.4147 414.45 51.5752C414.135 51.7301 413.883 51.9792 413.695 52.3223C413.512 52.6598 413.421 53.0998 413.421 53.6421ZM424.687 58.8716C423.852 58.8716 423.118 58.6779 422.488 58.2905C421.857 57.9032 421.367 57.3664 421.018 56.6802C420.67 55.9884 420.495 55.1971 420.495 54.3062C420.495 53.4041 420.67 52.6073 421.018 51.9155C421.367 51.2238 421.857 50.6842 422.488 50.2969C423.118 49.904 423.852 49.7075 424.687 49.7075C425.213 49.7075 425.697 49.7878 426.14 49.9482C426.588 50.1032 426.981 50.3245 427.319 50.6123C427.656 50.9001 427.93 51.2404 428.14 51.6333C428.351 52.0207 428.483 52.4495 428.539 52.9199H426.762C426.718 52.6709 426.641 52.4468 426.53 52.2476C426.419 52.0428 426.275 51.8657 426.098 51.7163C425.927 51.5669 425.725 51.4507 425.492 51.3677C425.26 51.2847 424.994 51.2432 424.696 51.2432C424.197 51.2432 423.769 51.3704 423.409 51.625C423.055 51.874 422.781 52.2282 422.587 52.6875C422.399 53.1468 422.305 53.6864 422.305 54.3062C422.305 54.9204 422.399 55.4544 422.587 55.9082C422.781 56.362 423.055 56.7134 423.409 56.9624C423.769 57.2114 424.197 57.3359 424.696 57.3359C424.994 57.3359 425.257 57.2972 425.484 57.2197C425.711 57.1367 425.907 57.0233 426.073 56.8794C426.239 56.73 426.378 56.5529 426.488 56.3481C426.599 56.1379 426.682 55.9054 426.738 55.6509H428.539C428.489 56.1102 428.359 56.5363 428.149 56.9292C427.944 57.3221 427.67 57.6652 427.327 57.9585C426.989 58.2463 426.596 58.4704 426.148 58.6309C425.7 58.7913 425.213 58.8716 424.687 58.8716ZM433.546 58.8716C432.711 58.8716 431.975 58.6779 431.338 58.2905C430.708 57.9032 430.215 57.3664 429.861 56.6802C429.512 55.994 429.338 55.2026 429.338 54.3062C429.338 53.3986 429.512 52.6017 429.861 51.9155C430.215 51.2238 430.708 50.6842 431.338 50.2969C431.975 49.904 432.711 49.7075 433.546 49.7075C434.388 49.7075 435.124 49.904 435.754 50.2969C436.385 50.6842 436.875 51.2238 437.224 51.9155C437.578 52.6017 437.755 53.3986 437.755 54.3062C437.755 55.2026 437.578 55.994 437.224 56.6802C436.875 57.3664 436.385 57.9032 435.754 58.2905C435.124 58.6779 434.388 58.8716 433.546 58.8716ZM433.546 57.3276C434.045 57.3276 434.471 57.2059 434.825 56.9624C435.184 56.7134 435.461 56.362 435.655 55.9082C435.849 55.4544 435.945 54.9204 435.945 54.3062C435.945 53.6808 435.849 53.1413 435.655 52.6875C435.461 52.2282 435.184 51.874 434.825 51.625C434.471 51.376 434.045 51.2515 433.546 51.2515C433.054 51.2515 432.628 51.376 432.268 51.625C431.908 51.874 431.632 52.2282 431.438 52.6875C431.244 53.1413 431.148 53.6808 431.148 54.3062C431.148 54.9204 431.244 55.4544 431.438 55.9082C431.632 56.362 431.908 56.7134 432.268 56.9624C432.628 57.2059 433.054 57.3276 433.546 57.3276ZM439.036 58.6724V49.9067H440.829V58.6724H439.036ZM439.924 48.396C439.619 48.396 439.359 48.2909 439.144 48.0806C438.928 47.8647 438.82 47.6047 438.82 47.3003C438.82 46.9959 438.928 46.7386 439.144 46.5283C439.359 46.3125 439.619 46.2046 439.924 46.2046C440.234 46.2046 440.497 46.3125 440.712 46.5283C440.928 46.7386 441.036 46.9959 441.036 47.3003C441.036 47.6047 440.928 47.8647 440.712 48.0806C440.497 48.2909 440.234 48.396 439.924 48.396ZM444.326 53.6421V58.6724H442.533V49.9067H444.292V52.0898H443.886C444.168 51.304 444.566 50.7147 445.081 50.3218C445.596 49.9289 446.218 49.7324 446.949 49.7324C447.552 49.7324 448.091 49.8652 448.567 50.1309C449.043 50.391 449.419 50.7783 449.696 51.293C449.973 51.8076 450.111 52.4468 450.111 53.2104V58.6724H448.318V53.4429C448.318 52.7456 448.152 52.2199 447.82 51.8657C447.488 51.5116 447.021 51.3345 446.417 51.3345C446.024 51.3345 445.67 51.4147 445.355 51.5752C445.039 51.7301 444.788 51.9792 444.599 52.3223C444.417 52.6598 444.326 53.0998 444.326 53.6421Z" fill="black"/>
<path d="M588.795 37.8716C587.804 37.8716 586.949 37.7028 586.23 37.3652C585.516 37.0277 584.966 36.5435 584.578 35.9126C584.191 35.2817 583.997 34.5319 583.997 33.6631H585.873C585.879 34.1999 585.995 34.6619 586.222 35.0493C586.454 35.4312 586.789 35.7244 587.226 35.9292C587.669 36.134 588.195 36.2363 588.803 36.2363C589.357 36.2363 589.838 36.1561 590.248 35.9956C590.663 35.8351 590.984 35.6082 591.211 35.3149C591.443 35.0216 591.559 34.6758 591.559 34.2773C591.559 33.9674 591.479 33.6963 591.318 33.4639C591.164 33.2259 590.912 33.0212 590.563 32.8496C590.22 32.6725 589.763 32.5176 589.193 32.3848L587.84 32.0693C586.59 31.776 585.677 31.361 585.101 30.8242C584.531 30.2819 584.246 29.5819 584.246 28.7241C584.246 27.9937 584.429 27.36 584.794 26.8232C585.159 26.2809 585.674 25.8604 586.338 25.5615C587.008 25.2572 587.785 25.105 588.671 25.105C589.561 25.105 590.333 25.2627 590.986 25.5781C591.645 25.8936 592.157 26.3446 592.522 26.9312C592.887 27.5122 593.081 28.2039 593.103 29.0063H591.285C591.241 28.3035 590.984 27.7529 590.513 27.3545C590.043 26.9505 589.42 26.7485 588.646 26.7485C588.153 26.7485 587.716 26.8288 587.334 26.9893C586.958 27.1442 586.662 27.3656 586.446 27.6533C586.23 27.9355 586.122 28.262 586.122 28.6328C586.122 28.9261 586.2 29.1834 586.355 29.4048C586.515 29.6206 586.767 29.8115 587.11 29.9775C587.459 30.1436 587.912 30.2957 588.471 30.4341L589.799 30.7495C590.419 30.8934 590.956 31.0705 591.41 31.2808C591.869 31.491 592.248 31.7373 592.547 32.0195C592.846 32.2962 593.067 32.6144 593.211 32.9741C593.36 33.3338 593.435 33.735 593.435 34.1777C593.435 34.9193 593.244 35.5695 592.862 36.1284C592.481 36.6818 591.941 37.1107 591.244 37.415C590.552 37.7194 589.736 37.8716 588.795 37.8716ZM599.065 28.9067V30.3843H593.944V28.9067H599.065ZM595.488 26.5161H597.281V35.3315C597.281 35.6525 597.347 35.8766 597.48 36.0039C597.613 36.1312 597.853 36.1948 598.202 36.1948C598.335 36.1948 598.482 36.1948 598.642 36.1948C598.808 36.1948 598.949 36.1948 599.065 36.1948V37.6724C598.922 37.6724 598.744 37.6724 598.534 37.6724C598.329 37.6724 598.133 37.6724 597.945 37.6724C597.109 37.6724 596.489 37.5008 596.085 37.1577C595.687 36.8091 595.488 36.2778 595.488 35.564V26.5161ZM603.036 37.8135C602.454 37.8135 601.934 37.7139 601.475 37.5146C601.021 37.3154 600.661 37.0194 600.396 36.6265C600.13 36.2336 599.997 35.7466 599.997 35.1655C599.997 34.6675 600.091 34.258 600.28 33.937C600.473 33.616 600.733 33.3615 601.06 33.1733C601.386 32.9852 601.757 32.8441 602.172 32.75C602.587 32.6504 603.016 32.5757 603.459 32.5259C604.012 32.4539 604.447 32.3986 604.762 32.3599C605.083 32.3156 605.31 32.2492 605.443 32.1606C605.581 32.0666 605.65 31.9144 605.65 31.7041V31.6294C605.65 31.3472 605.581 31.0981 605.443 30.8823C605.304 30.6665 605.105 30.4977 604.845 30.376C604.585 30.2542 604.27 30.1934 603.899 30.1934C603.534 30.1934 603.21 30.2542 602.928 30.376C602.645 30.4922 602.421 30.6554 602.255 30.8657C602.089 31.076 601.995 31.3167 601.973 31.5879H600.213C600.246 31.0234 600.418 30.5282 600.728 30.1021C601.038 29.6759 601.464 29.3411 602.006 29.0977C602.554 28.8542 603.193 28.7324 603.924 28.7324C604.466 28.7324 604.953 28.8016 605.385 28.9399C605.822 29.0783 606.19 29.2775 606.489 29.5376C606.793 29.7922 607.025 30.0993 607.186 30.459C607.346 30.8187 607.427 31.2199 607.427 31.6626V37.6724H605.659V36.4272H605.625C605.504 36.6652 605.335 36.8921 605.119 37.1079C604.909 37.3182 604.635 37.4897 604.297 37.6226C603.96 37.7498 603.539 37.8135 603.036 37.8135ZM603.417 36.3857C603.921 36.3857 604.339 36.2944 604.671 36.1118C605.008 35.9292 605.257 35.6885 605.418 35.3896C605.578 35.0853 605.659 34.7533 605.659 34.3936V33.3809C605.598 33.4251 605.498 33.4694 605.36 33.5137C605.227 33.5524 605.064 33.5911 604.87 33.6299C604.682 33.6686 604.474 33.7074 604.247 33.7461C604.026 33.7793 603.802 33.8097 603.575 33.8374C603.26 33.8817 602.964 33.9564 602.687 34.0615C602.416 34.1611 602.194 34.3022 602.023 34.4849C601.857 34.6619 601.774 34.8999 601.774 35.1987C601.774 35.4422 601.84 35.6553 601.973 35.8379C602.106 36.015 602.294 36.1506 602.537 36.2446C602.786 36.3387 603.08 36.3857 603.417 36.3857ZM610.791 34.7505V32.6338H610.948L614.659 28.9067H616.867L612.708 33.1567H612.418L610.791 34.7505ZM609.139 37.6724V25.3042H610.932V37.6724H609.139ZM614.925 37.6724L611.654 33.5552L612.874 32.3018L617.116 37.6724H614.925ZM617.782 37.6724V28.9067H619.575V37.6724H617.782ZM618.671 27.396C618.366 27.396 618.106 27.2909 617.89 27.0806C617.674 26.8647 617.567 26.6047 617.567 26.3003C617.567 25.9959 617.674 25.7386 617.89 25.5283C618.106 25.3125 618.366 25.2046 618.671 25.2046C618.98 25.2046 619.243 25.3125 619.459 25.5283C619.675 25.7386 619.783 25.9959 619.783 26.3003C619.783 26.6047 619.675 26.8647 619.459 27.0806C619.243 27.2909 618.98 27.396 618.671 27.396ZM623.072 32.6421V37.6724H621.279V28.9067H623.039V31.0898H622.632C622.915 30.304 623.313 29.7147 623.828 29.3218C624.342 28.9289 624.965 28.7324 625.695 28.7324C626.299 28.7324 626.838 28.8652 627.314 29.1309C627.79 29.391 628.166 29.7783 628.443 30.293C628.72 30.8076 628.858 31.4468 628.858 32.2104V37.6724H627.065V32.4429C627.065 31.7456 626.899 31.2199 626.567 30.8657C626.235 30.5116 625.767 30.3345 625.164 30.3345C624.771 30.3345 624.417 30.4147 624.102 30.5752C623.786 30.7301 623.534 30.9792 623.346 31.3223C623.164 31.6598 623.072 32.0998 623.072 32.6421ZM634.413 41.2583C633.689 41.2583 633.052 41.1504 632.504 40.9346C631.962 40.7188 631.525 40.4061 631.193 39.9966C630.861 39.5926 630.656 39.1056 630.578 38.5356H632.363C632.435 38.8179 632.565 39.0503 632.753 39.2329C632.947 39.4211 633.185 39.5622 633.467 39.6562C633.749 39.7559 634.065 39.8057 634.413 39.8057C635.116 39.8057 635.664 39.6175 636.057 39.2412C636.455 38.8649 636.655 38.3254 636.655 37.6226V36.2861H636.646C636.447 36.6237 636.209 36.9032 635.933 37.1245C635.661 37.3459 635.357 37.5119 635.019 37.6226C634.687 37.7277 634.328 37.7803 633.94 37.7803C633.182 37.7803 632.518 37.5894 631.948 37.2075C631.378 36.8201 630.935 36.2889 630.62 35.6138C630.305 34.9331 630.147 34.1501 630.147 33.2646C630.147 32.3737 630.305 31.5879 630.62 30.9072C630.935 30.221 631.378 29.687 631.948 29.3052C632.524 28.9233 633.188 28.7324 633.94 28.7324C634.322 28.7324 634.682 28.785 635.019 28.8901C635.357 28.9953 635.664 29.1613 635.941 29.3882C636.223 29.6095 636.461 29.8918 636.655 30.2349H636.663V28.9067H638.423V37.5479C638.423 38.4333 638.243 39.1471 637.883 39.6895C637.529 40.2373 637.048 40.6357 636.439 40.8848C635.83 41.1338 635.155 41.2583 634.413 41.2583ZM634.314 36.2529C634.806 36.2529 635.235 36.1312 635.6 35.8877C635.966 35.6387 636.248 35.29 636.447 34.8418C636.646 34.388 636.746 33.8595 636.746 33.2563C636.746 32.6476 636.646 32.1191 636.447 31.6709C636.248 31.2171 635.966 30.8685 635.6 30.625C635.235 30.376 634.806 30.2515 634.314 30.2515C633.849 30.2515 633.44 30.3677 633.085 30.6001C632.731 30.827 632.454 31.1646 632.255 31.6128C632.056 32.0555 631.956 32.6034 631.956 33.2563C631.956 33.9038 632.056 34.4517 632.255 34.8999C632.454 35.3426 632.731 35.6802 633.085 35.9126C633.44 36.1395 633.849 36.2529 634.314 36.2529ZM643.906 37.6724V28.9067H645.624V30.3262H645.657C645.818 29.8447 646.07 29.4712 646.413 29.2056C646.761 28.9344 647.215 28.7988 647.774 28.7988C647.907 28.7988 648.029 28.8044 648.139 28.8154C648.256 28.821 648.35 28.8293 648.422 28.8403V30.5005C648.35 30.4894 648.225 30.4728 648.048 30.4507C647.876 30.4285 647.688 30.4175 647.484 30.4175C647.157 30.4175 646.858 30.495 646.587 30.6499C646.316 30.7993 646.1 31.029 645.94 31.3389C645.779 31.6488 645.699 32.0417 645.699 32.5176V37.6724H643.906ZM653.056 37.8716C652.187 37.8716 651.44 37.6751 650.814 37.2822C650.189 36.8893 649.708 36.3498 649.37 35.6636C649.038 34.9718 648.872 34.186 648.872 33.3062C648.872 32.4097 649.046 31.6183 649.395 30.9321C649.744 30.2404 650.225 29.6981 650.839 29.3052C651.454 28.9067 652.162 28.7075 652.964 28.7075C653.584 28.7075 654.146 28.8182 654.649 29.0396C655.153 29.2609 655.585 29.5763 655.944 29.9858C656.31 30.3898 656.586 30.8713 656.774 31.4302C656.968 31.9891 657.065 32.6061 657.065 33.2812V33.771H649.661V32.4346H656.135L655.347 32.833C655.347 32.2962 655.25 31.8314 655.056 31.4385C654.862 31.04 654.589 30.7329 654.234 30.5171C653.88 30.3013 653.462 30.1934 652.981 30.1934C652.505 30.1934 652.09 30.3013 651.736 30.5171C651.387 30.7329 651.116 31.04 650.922 31.4385C650.729 31.8314 650.632 32.2962 650.632 32.833V33.605C650.632 34.1528 650.726 34.637 650.914 35.0576C651.108 35.4727 651.387 35.7992 651.752 36.0371C652.118 36.2695 652.56 36.3857 653.081 36.3857C653.462 36.3857 653.797 36.3276 654.085 36.2114C654.378 36.0952 654.619 35.9347 654.807 35.73C655.001 35.5197 655.139 35.2762 655.222 34.9995H656.94C656.83 35.5695 656.592 36.0703 656.227 36.502C655.867 36.9281 655.413 37.2629 654.865 37.5063C654.323 37.7498 653.72 37.8716 653.056 37.8716ZM659.964 37.6724L657.25 28.9067H659.134L660.122 32.4678C660.288 33.071 660.448 33.6935 660.603 34.3354C660.758 34.9718 660.913 35.5999 661.068 36.2197H660.819C660.98 35.5999 661.14 34.9718 661.301 34.3354C661.467 33.6935 661.633 33.071 661.799 32.4678L662.811 28.9067H664.505L665.501 32.4678C665.672 33.071 665.838 33.6935 665.999 34.3354C666.159 34.9718 666.32 35.5999 666.48 36.2197H666.215C666.375 35.5999 666.533 34.9718 666.688 34.3354C666.843 33.6935 667.003 33.071 667.169 32.4678L668.174 28.9067H670.066L667.352 37.6724H665.484L664.38 33.8706C664.275 33.4943 664.17 33.1125 664.065 32.7251C663.965 32.3377 663.866 31.9476 663.766 31.5547C663.666 31.1562 663.564 30.7661 663.459 30.3843H663.866C663.76 30.7661 663.655 31.1562 663.55 31.5547C663.451 31.9476 663.348 32.3377 663.243 32.7251C663.143 33.1125 663.038 33.4943 662.928 33.8706L661.807 37.6724H659.964ZM673.538 37.8135C672.957 37.8135 672.437 37.7139 671.978 37.5146C671.524 37.3154 671.164 37.0194 670.899 36.6265C670.633 36.2336 670.5 35.7466 670.5 35.1655C670.5 34.6675 670.594 34.258 670.783 33.937C670.976 33.616 671.236 33.3615 671.563 33.1733C671.889 32.9852 672.26 32.8441 672.675 32.75C673.09 32.6504 673.519 32.5757 673.962 32.5259C674.515 32.4539 674.949 32.3986 675.265 32.3599C675.586 32.3156 675.813 32.2492 675.946 32.1606C676.084 32.0666 676.153 31.9144 676.153 31.7041V31.6294C676.153 31.3472 676.084 31.0981 675.946 30.8823C675.807 30.6665 675.608 30.4977 675.348 30.376C675.088 30.2542 674.772 30.1934 674.402 30.1934C674.036 30.1934 673.713 30.2542 673.43 30.376C673.148 30.4922 672.924 30.6554 672.758 30.8657C672.592 31.076 672.498 31.3167 672.476 31.5879H670.716C670.749 31.0234 670.921 30.5282 671.231 30.1021C671.541 29.6759 671.967 29.3411 672.509 29.0977C673.057 28.8542 673.696 28.7324 674.427 28.7324C674.969 28.7324 675.456 28.8016 675.887 28.9399C676.325 29.0783 676.693 29.2775 676.991 29.5376C677.296 29.7922 677.528 30.0993 677.689 30.459C677.849 30.8187 677.929 31.2199 677.929 31.6626V37.6724H676.161V36.4272H676.128C676.006 36.6652 675.838 36.8921 675.622 37.1079C675.412 37.3182 675.138 37.4897 674.8 37.6226C674.463 37.7498 674.042 37.8135 673.538 37.8135ZM673.92 36.3857C674.424 36.3857 674.842 36.2944 675.174 36.1118C675.511 35.9292 675.76 35.6885 675.921 35.3896C676.081 35.0853 676.161 34.7533 676.161 34.3936V33.3809C676.101 33.4251 676.001 33.4694 675.863 33.5137C675.73 33.5524 675.567 33.5911 675.373 33.6299C675.185 33.6686 674.977 33.7074 674.75 33.7461C674.529 33.7793 674.305 33.8097 674.078 33.8374C673.762 33.8817 673.466 33.9564 673.19 34.0615C672.919 34.1611 672.697 34.3022 672.526 34.4849C672.36 34.6619 672.277 34.8999 672.277 35.1987C672.277 35.4422 672.343 35.6553 672.476 35.8379C672.609 36.015 672.797 36.1506 673.04 36.2446C673.289 36.3387 673.583 36.3857 673.92 36.3857ZM679.642 37.6724V28.9067H681.36V30.3262H681.393C681.554 29.8447 681.805 29.4712 682.149 29.2056C682.497 28.9344 682.951 28.7988 683.51 28.7988C683.643 28.7988 683.764 28.8044 683.875 28.8154C683.991 28.821 684.085 28.8293 684.157 28.8403V30.5005C684.085 30.4894 683.961 30.4728 683.784 30.4507C683.612 30.4285 683.424 30.4175 683.219 30.4175C682.893 30.4175 682.594 30.495 682.323 30.6499C682.052 30.7993 681.836 31.029 681.675 31.3389C681.515 31.6488 681.435 32.0417 681.435 32.5176V37.6724H679.642ZM688.401 37.8467C687.643 37.8467 686.979 37.6558 686.409 37.2739C685.839 36.8866 685.397 36.3525 685.081 35.6719C684.766 34.9857 684.608 34.1916 684.608 33.2896C684.608 32.3875 684.766 31.5962 685.081 30.9155C685.397 30.2293 685.839 29.6953 686.409 29.3135C686.985 28.9261 687.649 28.7324 688.401 28.7324C688.783 28.7324 689.14 28.785 689.472 28.8901C689.81 28.9953 690.114 29.1558 690.385 29.3716C690.662 29.5819 690.894 29.8475 691.083 30.1685H691.091V25.3042H692.884V37.6724H691.124V36.3359H691.116C690.917 36.6735 690.679 36.9557 690.402 37.1826C690.125 37.404 689.818 37.57 689.481 37.6807C689.148 37.7913 688.789 37.8467 688.401 37.8467ZM688.775 36.311C689.267 36.311 689.696 36.1865 690.062 35.9375C690.427 35.6829 690.709 35.3288 690.908 34.875C691.107 34.4212 691.207 33.8927 691.207 33.2896C691.207 32.6753 691.107 32.1413 690.908 31.6875C690.709 31.2337 690.427 30.8823 690.062 30.6333C689.696 30.3843 689.267 30.2598 688.775 30.2598C688.31 30.2598 687.901 30.376 687.546 30.6084C687.192 30.8408 686.916 31.1812 686.716 31.6294C686.517 32.0776 686.418 32.631 686.418 33.2896C686.418 33.937 686.517 34.4876 686.716 34.9414C686.916 35.3896 687.192 35.73 687.546 35.9624C687.901 36.1948 688.31 36.311 688.775 36.311ZM697.858 37.8799C697.183 37.8799 696.574 37.772 696.032 37.5562C695.495 37.3403 695.061 37.0194 694.729 36.5933C694.402 36.1616 694.217 35.6304 694.173 34.9995H695.941C695.991 35.4699 696.176 35.8324 696.497 36.0869C696.818 36.3415 697.261 36.4688 697.825 36.4688C698.373 36.4688 698.805 36.3581 699.12 36.1367C699.441 35.9098 699.601 35.6221 699.601 35.2734C699.601 34.9801 699.488 34.745 699.261 34.5679C699.034 34.3908 698.73 34.2607 698.348 34.1777L696.895 33.8623C696.065 33.6742 695.437 33.3698 695.011 32.9492C694.585 32.5286 694.372 31.9946 694.372 31.3472C694.372 30.827 694.51 30.3704 694.787 29.9775C695.069 29.5791 695.465 29.2692 695.974 29.0479C696.483 28.8265 697.075 28.7158 697.75 28.7158C698.414 28.7158 699.004 28.832 699.518 29.0645C700.033 29.2969 700.437 29.6289 700.73 30.0605C701.029 30.4867 701.187 30.9958 701.204 31.5879H699.502C699.496 31.1673 699.336 30.8187 699.02 30.542C698.705 30.2598 698.29 30.1187 697.775 30.1187C697.283 30.1187 696.89 30.2349 696.597 30.4673C696.309 30.6942 696.165 30.9736 696.165 31.3057C696.165 31.599 696.276 31.8369 696.497 32.0195C696.718 32.2021 697.023 32.3377 697.41 32.4263L698.921 32.75C699.779 32.9437 700.407 33.237 700.805 33.6299C701.209 34.0228 701.411 34.5374 701.411 35.1738C701.411 35.7327 701.256 36.2142 700.946 36.6182C700.642 37.0221 700.221 37.3348 699.684 37.5562C699.153 37.772 698.545 37.8799 697.858 37.8799ZM588.188 58.6724L592.671 46.3042H594.954L599.403 58.6724H597.352L594.995 51.7495C594.801 51.1463 594.591 50.4906 594.364 49.7822C594.137 49.0739 593.866 48.1968 593.551 47.1509H594.082C593.767 48.1968 593.493 49.0739 593.26 49.7822C593.033 50.4906 592.82 51.1463 592.621 51.7495L590.189 58.6724H588.188ZM590.695 55.4932V53.8994H596.904V55.4932H590.695ZM600.401 58.6724V46.3042H605C605.891 46.3042 606.657 46.4619 607.299 46.7773C607.947 47.0872 608.445 47.5327 608.793 48.1138C609.147 48.6893 609.325 49.3755 609.325 50.1724C609.325 50.9637 609.145 51.6499 608.785 52.231C608.425 52.8065 607.916 53.252 607.258 53.5674C606.605 53.8828 605.835 54.0405 604.95 54.0405H601.397V52.4136H604.908C605.44 52.4136 605.894 52.3223 606.27 52.1396C606.652 51.957 606.945 51.6969 607.15 51.3594C607.36 51.0218 607.465 50.6261 607.465 50.1724C607.465 49.7075 607.36 49.3091 607.15 48.9771C606.945 48.645 606.652 48.3877 606.27 48.2051C605.894 48.0225 605.44 47.9312 604.908 47.9312H602.294V58.6724H600.401ZM614.249 58.6724V53.75L609.692 46.3042H611.867L614.208 50.1973C614.435 50.5736 614.653 50.9499 614.863 51.3262C615.079 51.7025 615.292 52.0788 615.503 52.4551H614.897C615.101 52.0788 615.309 51.7025 615.519 51.3262C615.735 50.9499 615.954 50.5736 616.175 50.1973L618.491 46.3042H620.649L616.117 53.75V58.6724H614.249ZM625.418 58.6724V46.3042H627.502L632.184 53.7168C632.294 53.8939 632.438 54.1318 632.615 54.4307C632.792 54.7295 632.98 55.0532 633.18 55.4019C633.379 55.745 633.57 56.0825 633.752 56.4146L633.553 56.8462C633.537 56.5197 633.52 56.1434 633.503 55.7173C633.492 55.2856 633.484 54.8761 633.478 54.4888C633.473 54.0959 633.47 53.7998 633.47 53.6006V46.3042H635.354V58.6724H633.263L629.079 52.0483C628.946 51.8381 628.772 51.5558 628.556 51.2017C628.34 50.8475 628.094 50.4352 627.817 49.9648C627.541 49.4889 627.245 48.9771 626.929 48.4292L627.203 48.0723C627.231 48.7031 627.253 49.2786 627.269 49.7988C627.286 50.3135 627.297 50.7617 627.303 51.1436C627.308 51.5199 627.311 51.8159 627.311 52.0317V58.6724H625.418ZM641.145 52.8535C641.145 51.9017 641.228 50.925 641.394 49.9233C641.565 48.9217 641.798 47.9727 642.091 47.0762C642.39 46.1797 642.733 45.4105 643.12 44.7686H644.863C644.476 45.5654 644.139 46.4259 643.851 47.3501C643.569 48.2687 643.347 49.1984 643.187 50.1392C643.032 51.0799 642.954 51.9847 642.954 52.8535C642.954 53.6338 643.023 54.4141 643.162 55.1943C643.3 55.9691 643.51 56.7687 643.793 57.5933C644.075 58.4178 644.432 59.2894 644.863 60.208H643.12C642.478 59.1068 641.989 57.9308 641.651 56.6802C641.314 55.4295 641.145 54.154 641.145 52.8535ZM650.021 58.8467C649.196 58.8467 648.46 58.6807 647.813 58.3486C647.165 58.0166 646.648 57.5628 646.26 56.9873C645.878 56.4118 645.668 55.7505 645.629 55.0034H647.464C647.519 55.6619 647.785 56.207 648.261 56.6387C648.737 57.0648 649.323 57.2778 650.021 57.2778C650.519 57.2778 650.953 57.1644 651.324 56.9375C651.7 56.7051 651.993 56.3869 652.204 55.9829C652.414 55.5789 652.519 55.1196 652.519 54.605C652.519 54.0848 652.417 53.6255 652.212 53.2271C652.013 52.8231 651.731 52.5076 651.365 52.2808C651.006 52.0483 650.588 51.9321 650.112 51.9321C649.481 51.9321 648.941 52.0622 648.493 52.3223C648.045 52.5768 647.732 52.9448 647.555 53.4263H645.795L646.194 46.3042H653.623V47.9062H647.879L647.613 51.5088H647.63C647.995 51.127 648.407 50.842 648.867 50.6538C649.326 50.4657 649.832 50.3716 650.386 50.3716C650.956 50.3716 651.479 50.474 651.955 50.6787C652.436 50.8835 652.851 51.1768 653.2 51.5586C653.554 51.9349 653.828 52.3804 654.022 52.895C654.221 53.4041 654.32 53.9631 654.32 54.5718C654.32 55.4074 654.141 56.1462 653.781 56.7881C653.421 57.43 652.918 57.9336 652.27 58.2988C651.628 58.6641 650.878 58.8467 650.021 58.8467ZM661.171 51.708V53.2686H655.684V51.708H661.171ZM667.075 46.3042V58.6724H665.257V48.147H665.249L662.236 50.1143V48.3213L665.315 46.3042H667.075ZM668.605 58.6724V57.1865L673.054 53.2271C673.519 52.8065 673.906 52.4274 674.216 52.0898C674.531 51.7523 674.769 51.4202 674.93 51.0938C675.09 50.7617 675.171 50.3937 675.171 49.9897C675.171 49.5083 675.074 49.0988 674.88 48.7612C674.692 48.4181 674.421 48.1553 674.067 47.9727C673.712 47.79 673.284 47.6987 672.78 47.6987C672.287 47.6987 671.859 47.8094 671.493 48.0308C671.134 48.2466 670.854 48.5565 670.655 48.9604C670.461 49.3644 670.364 49.8431 670.364 50.3965H668.621C668.621 49.5443 668.796 48.7972 669.144 48.1553C669.493 47.5133 669.977 47.0125 670.597 46.6528C671.222 46.2876 671.947 46.105 672.772 46.105C673.602 46.105 674.327 46.2627 674.947 46.5781C675.572 46.8936 676.059 47.3363 676.407 47.9062C676.762 48.4762 676.939 49.1458 676.939 49.915C676.939 50.4518 676.836 50.9554 676.632 51.4258C676.427 51.8962 676.122 52.3638 675.718 52.8286C675.32 53.2879 674.828 53.7804 674.241 54.3062L671.161 57.062V57.0786H677.005V58.6724H668.605ZM678.535 49.2593V49.0103C678.535 48.4513 678.648 47.9533 678.875 47.5161C679.102 47.0734 679.415 46.7275 679.813 46.4785C680.217 46.2295 680.687 46.105 681.224 46.105C681.761 46.105 682.229 46.2295 682.627 46.4785C683.025 46.7275 683.335 47.0734 683.557 47.5161C683.784 47.9533 683.897 48.4513 683.897 49.0103V49.2593C683.897 49.8237 683.784 50.3245 683.557 50.7617C683.335 51.1989 683.025 51.542 682.627 51.791C682.229 52.04 681.761 52.1646 681.224 52.1646C680.687 52.1646 680.217 52.04 679.813 51.791C679.415 51.542 679.102 51.1989 678.875 50.7617C678.648 50.3245 678.535 49.8237 678.535 49.2593ZM679.987 49.0103V49.2593C679.987 49.7905 680.098 50.2028 680.319 50.4961C680.541 50.7839 680.842 50.9277 681.224 50.9277C681.595 50.9277 681.891 50.7839 682.112 50.4961C682.334 50.2028 682.444 49.7905 682.444 49.2593V49.0103C682.444 48.4845 682.334 48.075 682.112 47.7817C681.891 47.4884 681.595 47.3418 681.224 47.3418C680.842 47.3418 680.541 47.4884 680.319 47.7817C680.098 48.075 679.987 48.4845 679.987 49.0103ZM685.549 55.9663V55.7173C685.549 55.1528 685.66 54.652 685.881 54.2148C686.108 53.7777 686.421 53.4346 686.819 53.1855C687.223 52.9365 687.693 52.812 688.23 52.812C688.767 52.812 689.234 52.9365 689.633 53.1855C690.031 53.4346 690.341 53.7777 690.563 54.2148C690.789 54.652 690.903 55.1528 690.903 55.7173V55.9663C690.903 56.5308 690.789 57.0316 690.563 57.4688C690.341 57.9059 690.031 58.249 689.633 58.498C689.234 58.7471 688.767 58.8716 688.23 58.8716C687.693 58.8716 687.223 58.7471 686.819 58.498C686.421 58.249 686.108 57.9059 685.881 57.4688C685.66 57.0316 685.549 56.5308 685.549 55.9663ZM686.993 55.7173V55.9663C686.993 56.492 687.104 56.9015 687.325 57.1948C687.552 57.4826 687.854 57.6265 688.23 57.6265C688.606 57.6265 688.905 57.4826 689.127 57.1948C689.348 56.9015 689.459 56.492 689.459 55.9663V55.7173C689.459 55.186 689.348 54.7765 689.127 54.4888C688.905 54.1955 688.606 54.0488 688.23 54.0488C687.854 54.0488 687.552 54.1955 687.325 54.4888C687.104 54.7765 686.993 55.186 686.993 55.7173ZM679.68 58.6724L688.18 46.3042H689.757L681.257 58.6724H679.68ZM692.15 60.208C692.582 59.2894 692.936 58.4178 693.213 57.5933C693.495 56.7687 693.705 55.9691 693.844 55.1943C693.988 54.4141 694.06 53.6338 694.06 52.8535C694.06 51.9847 693.979 51.0799 693.819 50.1392C693.664 49.1984 693.443 48.2687 693.155 47.3501C692.873 46.4259 692.538 45.5654 692.15 44.7686H693.885C694.278 45.4105 694.621 46.1797 694.915 47.0762C695.213 47.9727 695.446 48.9217 695.612 49.9233C695.783 50.925 695.869 51.9017 695.869 52.8535C695.869 54.154 695.7 55.4295 695.363 56.6802C695.031 57.9308 694.538 59.1068 693.885 60.208H692.15Z" fill="black"/>
<path d="M544.912 142.35V163.502" stroke="black"/>
<path d="M555.488 152.926L534.336 152.926" stroke="black"/>
<path d="M284.159 152.424L258.687 152.424" stroke="black"/>
<path d="M284.159 160.289L258.687 160.289" stroke="black"/>
<circle cx="271.858" cy="145.171" r="1.60879" fill="black"/>
<ellipse cx="643.252" cy="203.976" rx="48.4761" ry="22.617" fill="#F0F4F8" stroke="#07ACFF" stroke-width="4"/>
<path d="M592.665 213.896V203.696C594.072 212.372 606.128 221.047 624.416 225.033C642.705 229.019 667.675 225.384 680.219 218.937C690.254 213.778 693.539 206.237 693.812 203.11V216.24C691.048 232.8 661.104 238.955 645.167 238.514C620.22 238.89 604.526 230.933 599.798 226.908C593.889 222.125 592.666 216.298 592.665 213.896Z" fill="#07ACFF"/>
<ellipse cx="643.252" cy="185.671" rx="48.4761" ry="22.617" fill="#F0F4F8" stroke="#07ACFF" stroke-width="4"/>
<path d="M592.665 195.59V185.391C594.072 194.066 606.128 202.741 624.416 206.727C642.705 210.713 667.675 207.079 680.219 200.631C690.254 195.473 693.539 187.931 693.812 184.805V197.935C691.048 214.494 661.104 220.65 645.167 220.209C620.22 220.584 604.526 212.628 599.798 208.603C593.889 203.82 592.666 197.993 592.665 195.59Z" fill="#07ACFF"/>
<ellipse cx="643.252" cy="167.365" rx="48.4761" ry="22.617" fill="#F0F4F8" stroke="#07ACFF" stroke-width="4"/>
<path d="M592.665 177.284V167.085C594.072 175.76 606.128 184.436 624.416 188.421C642.705 192.407 667.675 188.773 680.219 182.325C690.254 177.167 693.539 169.625 693.812 166.499V179.629C691.048 196.188 661.104 202.344 645.167 201.903C620.22 202.278 604.526 194.322 599.798 190.297C593.889 185.514 592.666 179.687 592.665 177.284Z" fill="#07ACFF"/>
<ellipse cx="643.252" cy="148.507" rx="48.4761" ry="22.617" fill="#F0F4F8" stroke="#07ACFF" stroke-width="4"/>
<path d="M592.665 158.426V148.227C594.072 156.902 606.128 165.577 624.416 169.563C642.705 173.549 667.675 169.915 680.219 163.467C690.254 158.309 693.539 150.767 693.812 147.641V160.771C691.048 177.33 661.104 183.486 645.167 183.045C620.22 183.42 604.526 175.464 599.798 171.439C593.889 166.656 592.666 160.829 592.665 158.426Z" fill="#07ACFF"/>
<ellipse cx="643.252" cy="129.116" rx="48.4761" ry="22.617" fill="#F0F4F8" stroke="#07ACFF" stroke-width="4"/>
<path d="M592.665 139.035V128.836C594.072 137.511 606.128 146.186 624.416 150.172C642.705 154.158 667.675 150.524 680.219 144.076C690.254 138.918 693.539 131.376 693.812 128.25V141.38C691.048 157.939 661.104 164.095 645.167 163.654C620.22 164.029 604.526 156.073 599.798 152.048C593.889 147.265 592.666 141.438 592.665 139.035Z" fill="#07ACFF"/>
<ellipse cx="643.252" cy="109.906" rx="48.4761" ry="22.617" fill="#F0F4F8" stroke="#07ACFF" stroke-width="4"/>
<path d="M592.665 119.825V109.626C594.072 118.301 606.128 126.977 624.416 130.962C642.705 134.948 667.675 131.314 680.219 124.866C690.254 119.708 693.539 112.166 693.812 109.04V122.17C691.048 138.729 661.104 144.885 645.167 144.444C620.22 144.819 604.526 136.863 599.798 132.838C593.889 128.055 592.666 122.228 592.665 119.825Z" fill="#07ACFF"/>
<path fill-rule="evenodd" clip-rule="evenodd" d="M122.628 61.8779C121.882 59.9523 120.03 58.6831 117.965 58.6831H53.9307C51.1692 58.6831 48.9307 60.9217 48.9307 63.6831V73.0398V84.1547V246.25C48.9307 249.012 51.1692 251.25 53.9307 251.25H197.551C200.313 251.25 202.551 249.012 202.551 246.25V78.0398C202.551 75.2784 200.313 73.0398 197.551 73.0398H130.375C128.31 73.0398 126.458 71.7706 125.712 69.8451L122.628 61.8779Z" fill="#07ACFF"/>
<circle cx="60.0699" cy="68.453" r="2.78702" fill="white"/>
<circle cx="69.6255" cy="68.453" r="2.78702" fill="white"/>
<circle cx="79.5793" cy="68.453" r="2.78702" fill="white"/>
<path d="M87.5536 141.629C88.8905 140.77 90.6063 140.77 91.9431 141.629V141.629C92.8584 142.218 93.9718 142.414 95.0332 142.174V142.174C96.5835 141.823 98.1958 142.41 99.158 143.676V143.676C99.8167 144.542 100.796 145.107 101.875 145.244V145.244C103.452 145.445 104.766 146.548 105.238 148.066V148.066C105.561 149.105 106.287 149.971 107.255 150.469V150.469C108.668 151.197 109.526 152.683 109.449 154.271V154.271C109.397 155.358 109.784 156.42 110.523 157.219V157.219C111.602 158.387 111.899 160.076 111.285 161.542V161.542C110.864 162.546 110.864 163.676 111.285 164.68V164.68C111.899 166.146 111.602 167.835 110.523 169.003V169.003C109.784 169.802 109.397 170.864 109.449 171.951V171.951C109.526 173.539 108.668 175.025 107.255 175.753V175.753C106.287 176.251 105.561 177.117 105.238 178.156V178.156C104.766 179.674 103.452 180.777 101.875 180.978V180.978C100.796 181.115 99.8167 181.68 99.158 182.547V182.547C98.1958 183.812 96.5835 184.399 95.0332 184.048V184.048C93.9718 183.808 92.8584 184.004 91.9431 184.593V184.593C90.6063 185.453 88.8905 185.453 87.5536 184.593V184.593C86.6384 184.004 85.525 183.808 84.4636 184.048V184.048C82.9133 184.399 81.301 183.812 80.3388 182.547V182.547C79.6801 181.68 78.701 181.115 77.6215 180.978V180.978C76.0447 180.777 74.7303 179.674 74.2589 178.156V178.156C73.9362 177.117 73.2095 176.251 72.2421 175.753V175.753C70.829 175.025 69.9711 173.539 70.0473 171.951V171.951C70.0995 170.864 69.7128 169.802 68.9742 169.003V169.003C67.8953 167.835 67.5973 166.146 68.2119 164.68V164.68C68.6327 163.676 68.6327 162.546 68.2119 161.542V161.542C67.5973 160.076 67.8953 158.387 68.9742 157.219V157.219C69.7128 156.42 70.0995 155.358 70.0473 154.271V154.271C69.9711 152.683 70.829 151.197 72.2421 150.469V150.469C73.2095 149.971 73.9362 149.105 74.2589 148.066V148.066C74.7303 146.548 76.0447 145.445 77.6215 145.244V145.244C78.701 145.107 79.6801 144.542 80.3388 143.676V143.676C81.301 142.41 82.9133 141.823 84.4636 142.174V142.174C85.525 142.414 86.6384 142.218 87.5536 141.629V141.629Z" fill="white"/>
<path d="M97.412 153.566H82.0841C79.2658 153.566 77.4795 156.606 78.8973 159.064L88.3572 175.46C88.9745 176.531 90.5216 176.531 91.1389 175.46L100.601 159.064C102.017 156.61 100.23 153.566 97.4139 153.566H97.412ZM88.3495 170.543L86.2893 166.556L81.3183 157.665C80.9903 157.096 81.3954 156.367 82.0821 156.367H88.3476V170.545L88.3495 170.543ZM98.174 157.663L93.2048 166.558L91.1447 170.543V156.365H97.4101C98.0968 156.365 98.5019 157.094 98.174 157.663Z" fill="#07ACFF"/>
<path d="M120.085 160.195V143.714H126.655C127.901 143.714 128.978 143.935 129.885 144.378C130.799 144.82 131.5 145.45 131.987 146.269C132.481 147.08 132.728 148.046 132.728 149.167C132.728 150.281 132.477 151.247 131.975 152.065C131.481 152.876 130.777 153.507 129.863 153.957C128.948 154.399 127.864 154.62 126.611 154.62H122.076V151.645H126.423C127.005 151.645 127.507 151.545 127.927 151.346C128.347 151.14 128.672 150.852 128.9 150.483C129.136 150.107 129.254 149.668 129.254 149.167C129.254 148.651 129.136 148.212 128.9 147.851C128.672 147.482 128.347 147.198 127.927 146.999C127.507 146.793 127.005 146.689 126.423 146.689H123.646V160.195H120.085Z" fill="white"/>
<path d="M139.027 160.461C137.84 160.461 136.797 160.21 135.897 159.708C134.997 159.2 134.293 158.488 133.784 157.574C133.283 156.659 133.032 155.59 133.032 154.366C133.032 153.142 133.283 152.072 133.784 151.158C134.293 150.236 134.997 149.521 135.897 149.012C136.797 148.503 137.84 148.249 139.027 148.249C140.222 148.249 141.265 148.503 142.158 149.012C143.057 149.521 143.758 150.236 144.259 151.158C144.768 152.072 145.022 153.142 145.022 154.366C145.022 155.59 144.768 156.659 144.259 157.574C143.758 158.488 143.057 159.2 142.158 159.708C141.265 160.21 140.222 160.461 139.027 160.461ZM139.027 157.706C139.536 157.706 139.978 157.577 140.355 157.319C140.738 157.054 141.037 156.67 141.251 156.169C141.464 155.667 141.571 155.066 141.571 154.366C141.571 153.651 141.464 153.046 141.251 152.552C141.037 152.05 140.738 151.667 140.355 151.401C139.978 151.136 139.536 151.003 139.027 151.003C138.526 151.003 138.083 151.136 137.7 151.401C137.316 151.667 137.018 152.05 136.804 152.552C136.59 153.046 136.483 153.651 136.483 154.366C136.483 155.066 136.59 155.667 136.804 156.169C137.018 156.67 137.316 157.054 137.7 157.319C138.083 157.577 138.526 157.706 139.027 157.706Z" fill="white"/>
<path d="M152.03 160.461C150.843 160.461 149.799 160.21 148.9 159.708C148 159.2 147.296 158.488 146.787 157.574C146.285 156.659 146.035 155.59 146.035 154.366C146.035 153.142 146.285 152.072 146.787 151.158C147.296 150.236 148 149.521 148.9 149.012C149.799 148.503 150.843 148.249 152.03 148.249C153.224 148.249 154.268 148.503 155.16 149.012C156.06 149.521 156.76 150.236 157.262 151.158C157.771 152.072 158.025 153.142 158.025 154.366C158.025 155.59 157.771 156.659 157.262 157.574C156.76 158.488 156.06 159.2 155.16 159.708C154.268 160.21 153.224 160.461 152.03 160.461ZM152.03 157.706C152.539 157.706 152.981 157.577 153.357 157.319C153.741 157.054 154.039 156.67 154.253 156.169C154.467 155.667 154.574 155.066 154.574 154.366C154.574 153.651 154.467 153.046 154.253 152.552C154.039 152.05 153.741 151.667 153.357 151.401C152.981 151.136 152.539 151.003 152.03 151.003C151.528 151.003 151.086 151.136 150.703 151.401C150.319 151.667 150.02 152.05 149.807 152.552C149.593 153.046 149.486 153.651 149.486 154.366C149.486 155.066 149.593 155.667 149.807 156.169C150.02 156.67 150.319 157.054 150.703 157.319C151.086 157.577 151.528 157.706 152.03 157.706Z" fill="white"/>
<path d="M162.953 143.714V160.195H159.546V143.714H162.953Z" fill="white"/>
<path d="M124.985 183.092C123.289 183.092 121.954 182.638 120.981 181.731C120.015 180.824 119.532 179.523 119.532 177.827V176.687H122.872V177.849C122.872 178.579 123.056 179.139 123.425 179.53C123.794 179.914 124.299 180.105 124.941 180.105C125.575 180.105 126.076 179.914 126.445 179.53C126.814 179.139 126.998 178.579 126.998 177.849V166.367H130.549V177.904C130.549 179.571 130.055 180.854 129.066 181.753C128.078 182.646 126.718 183.092 124.985 183.092Z" fill="white"/>
<path d="M137.999 183.114C136.819 183.114 135.786 182.856 134.901 182.34C134.016 181.816 133.327 181.093 132.833 180.172C132.346 179.25 132.103 178.199 132.103 177.019C132.103 175.825 132.35 174.77 132.844 173.856C133.338 172.934 134.02 172.211 134.89 171.688C135.76 171.164 136.76 170.902 137.888 170.902C138.758 170.902 139.547 171.05 140.255 171.345C140.963 171.632 141.571 172.049 142.08 172.595C142.596 173.133 142.991 173.771 143.264 174.508C143.544 175.246 143.684 176.057 143.684 176.942V177.86H133.286V175.725H142.058L140.509 176.212C140.509 175.644 140.406 175.157 140.2 174.752C139.993 174.339 139.702 174.022 139.326 173.8C138.95 173.579 138.496 173.469 137.965 173.469C137.442 173.469 136.988 173.579 136.605 173.8C136.229 174.022 135.937 174.339 135.731 174.752C135.525 175.157 135.421 175.644 135.421 176.212V177.705C135.421 178.288 135.525 178.796 135.731 179.231C135.945 179.659 136.251 179.995 136.649 180.238C137.055 180.474 137.541 180.592 138.109 180.592C138.515 180.592 138.876 180.533 139.193 180.415C139.518 180.297 139.787 180.131 140.001 179.917C140.222 179.696 140.38 179.445 140.476 179.165H143.584C143.437 179.939 143.101 180.625 142.578 181.222C142.062 181.812 141.405 182.277 140.609 182.616C139.82 182.948 138.95 183.114 137.999 183.114Z" fill="white"/>
<path d="M152.052 171.168V173.834H144.243V171.168H152.052ZM146.256 167.982H149.663V179.154C149.663 179.545 149.74 179.814 149.895 179.961C150.057 180.109 150.356 180.183 150.791 180.183C150.975 180.183 151.197 180.183 151.455 180.183C151.72 180.183 151.919 180.183 152.052 180.183V182.848C151.86 182.848 151.58 182.848 151.211 182.848C150.843 182.848 150.47 182.848 150.094 182.848C148.774 182.848 147.805 182.594 147.185 182.085C146.566 181.576 146.256 180.78 146.256 179.696V167.982Z" fill="white"/>
<path d="M159.347 171.168V173.834H151.538V171.168H159.347ZM153.551 167.982H156.958V179.154C156.958 179.545 157.035 179.814 157.19 179.961C157.352 180.109 157.651 180.183 158.086 180.183C158.27 180.183 158.492 180.183 158.75 180.183C159.015 180.183 159.214 180.183 159.347 180.183V182.848C159.155 182.848 158.875 182.848 158.506 182.848C158.138 182.848 157.765 182.848 157.389 182.848C156.069 182.848 155.1 182.594 154.48 182.085C153.861 181.576 153.551 180.78 153.551 179.696V167.982Z" fill="white"/>
<path d="M166.045 183.114C164.858 183.114 163.814 182.863 162.915 182.362C162.015 181.853 161.311 181.141 160.802 180.227C160.3 179.313 160.05 178.243 160.05 177.019C160.05 175.795 160.3 174.726 160.802 173.811C161.311 172.89 162.015 172.174 162.915 171.666C163.814 171.157 164.858 170.902 166.045 170.902C167.239 170.902 168.283 171.157 169.175 171.666C170.075 172.174 170.775 172.89 171.277 173.811C171.786 174.726 172.04 175.795 172.04 177.019C172.04 178.243 171.786 179.313 171.277 180.227C170.775 181.141 170.075 181.853 169.175 182.362C168.283 182.863 167.239 183.114 166.045 183.114ZM166.045 180.36C166.554 180.36 166.996 180.231 167.372 179.973C167.756 179.707 168.054 179.324 168.268 178.822C168.482 178.321 168.589 177.72 168.589 177.019C168.589 176.304 168.482 175.699 168.268 175.205C168.054 174.704 167.756 174.32 167.372 174.055C166.996 173.789 166.554 173.657 166.045 173.657C165.543 173.657 165.101 173.789 164.718 174.055C164.334 174.32 164.035 174.704 163.822 175.205C163.608 175.699 163.501 176.304 163.501 177.019C163.501 177.72 163.608 178.321 163.822 178.822C164.035 179.324 164.334 179.707 164.718 179.973C165.101 180.231 165.543 180.36 166.045 180.36Z" fill="white"/>
<path d="M176.968 176.4V182.848H173.561V171.168H176.913V174.232H176.36C176.728 173.199 177.256 172.392 177.941 171.809C178.627 171.219 179.508 170.924 180.585 170.924C181.418 170.924 182.141 171.105 182.753 171.466C183.365 171.82 183.837 172.34 184.169 173.026C184.501 173.712 184.667 174.545 184.667 175.526V182.848H181.26V176.179C181.26 175.419 181.079 174.844 180.718 174.453C180.356 174.055 179.84 173.856 179.169 173.856C178.734 173.856 178.351 173.948 178.019 174.132C177.687 174.309 177.429 174.586 177.245 174.962C177.06 175.33 176.968 175.81 176.968 176.4Z" fill="white"/>
<path fill-rule="evenodd" clip-rule="evenodd" d="M347.926 78.1841C347.926 75.4227 350.164 73.1841 352.926 73.1841H495.119C497.88 73.1841 500.119 75.4227 500.119 78.1841V233.469C500.119 236.231 497.88 238.469 495.119 238.469H493.664C490.902 238.469 488.664 240.708 488.664 243.469V246.561C488.664 249.323 486.425 251.561 483.664 251.561H458.479C455.718 251.561 453.479 249.323 453.479 246.561V243.469C453.479 240.708 451.241 238.469 448.479 238.469H399.565C396.804 238.469 394.565 240.708 394.565 243.469V246.561C394.565 249.323 392.327 251.561 389.565 251.561H364.381C361.62 251.561 359.381 249.323 359.381 246.561V243.469C359.381 240.708 357.142 238.469 354.381 238.469H352.926C350.164 238.469 347.926 236.231 347.926 233.469V78.1841Z" fill="white"/>
<path d="M424.267 185.494C442.659 185.494 457.569 170.585 457.569 152.192C457.569 133.8 442.659 118.89 424.267 118.89C405.875 118.89 390.965 133.8 390.965 152.192C390.965 170.585 405.875 185.494 424.267 185.494Z" fill="#07ACFF"/>
<path d="M435.638 137.477H412.895C408.714 137.477 406.063 141.988 408.167 145.634L422.203 169.962C423.119 171.551 425.414 171.551 426.33 169.962L440.369 145.634C442.47 141.994 439.819 137.477 435.641 137.477H435.638ZM422.191 162.667L419.135 156.751L411.759 143.559C411.272 142.715 411.873 141.633 412.892 141.633H422.189V162.67L422.191 162.667ZM436.768 143.556L429.395 156.754L426.339 162.667V141.63H435.635C436.654 141.63 437.255 142.712 436.768 143.556Z" fill="white"/>
<circle cx="481.242" cy="142.462" r="2.78702" transform="rotate(90 481.242 142.462)" fill="#F0F4F8"/>
<circle cx="481.242" cy="152.017" r="2.78702" transform="rotate(90 481.242 152.017)" fill="#F0F4F8"/>
<circle cx="481.242" cy="161.971" r="2.78702" transform="rotate(90 481.242 161.971)" fill="#F0F4F8"/>
</svg>
